<?xml version="1.0" standalone="no"?>
<!DOCTYPE svg PUBLIC "-//W3C//DTD SVG 20010904//EN"
 "http://www.w3.org/TR/2001/REC-SVG-20010904/DTD/svg10.dtd">
<svg version="1.0" xmlns="http://www.w3.org/2000/svg"
 width="260.000000pt" height="260.000000pt" viewBox="0 0 260.000000 260.000000"
 preserveAspectRatio="xMidYMid meet">
<metadata>
Created by potrace 1.14, written by Peter Selinger 2001-2017
</metadata>
<g transform="translate(0.000000,260.000000) scale(0.100000,-0.100000)"
fill="#000000" stroke="none">
<path d="M0 1300 l0 -1300 1300 0 1300 0 0 1300 0 1300 -1300 0 -1300 0 0
-1300z m1455 868 c14 -12 25 -28 25 -35 0 -7 16 -36 35 -63 19 -27 35 -57 35
-65 0 -9 7 -18 15 -21 8 -4 15 -17 15 -30 0 -13 9 -28 20 -34 11 -6 20 -19 20
-30 0 -10 5 -22 11 -25 5 -4 15 -17 20 -28 6 -12 21 -40 34 -62 25 -41 31 -54
40 -81 3 -8 13 -14 22 -12 14 2 19 15 21 48 4 60 20 70 107 70 42 0 78 -5 87
-12 20 -16 89 -125 117 -185 17 -37 44 -28 71 25 31 60 88 143 108 160 24 18
157 16 176 -4 14 -13 16 -57 16 -325 0 -354 9 -324 -101 -324 -98 0 -99 1 -99
166 0 77 -4 139 -9 139 -8 0 -74 -97 -100 -147 -18 -36 -57 -30 -78 11 -83
160 -109 175 -100 56 6 -69 11 -85 42 -130 19 -27 35 -56 35 -63 0 -7 9 -20
20 -30 11 -9 20 -25 20 -36 0 -10 7 -21 15 -25 8 -3 15 -12 15 -21 0 -8 16
-38 35 -65 19 -27 35 -58 35 -67 0 -10 9 -24 20 -31 11 -7 20 -21 20 -32 0
-11 4 -20 9 -20 5 0 14 -12 20 -27 21 -49 44 -88 58 -96 7 -4 13 -18 13 -30 0
-13 9 -30 20 -40 11 -9 20 -23 20 -31 0 -7 7 -19 15 -26 8 -7 15 -20 15 -29 0
-9 9 -22 20 -29 11 -7 20 -21 20 -31 0 -10 7 -21 15 -25 8 -3 15 -14 15 -24 0
-10 9 -27 20 -37 11 -10 20 -26 20 -35 0 -10 7 -20 15 -24 8 -3 15 -17 15 -31
0 -35 -29 -32 -41 5 -6 17 -15 30 -20 30 -5 0 -9 6 -9 13 0 8 -9 24 -20 37
-11 13 -20 31 -20 40 0 10 -7 20 -15 24 -8 3 -15 14 -15 24 0 10 -9 29 -20 42
-11 13 -20 29 -20 37 0 7 -7 16 -15 19 -8 4 -15 14 -15 24 0 9 -9 25 -20 35
-11 10 -20 26 -20 36 0 10 -6 22 -13 26 -7 4 -18 19 -25 33 -22 43 -39 71 -51
83 -6 6 -11 18 -11 27 0 9 -9 25 -20 35 -11 10 -20 25 -20 34 0 9 -9 24 -20
34 -11 9 -20 26 -20 37 0 11 -4 20 -9 20 -10 0 -27 26 -55 87 -9 17 -20 34
-26 38 -5 3 -10 13 -10 21 0 8 -16 37 -35 64 -19 27 -35 54 -35 59 0 5 -6 16
-13 23 -7 7 -20 27 -29 43 -29 57 -81 150 -107 190 -25 38 -66 113 -93 165 -7
14 -18 29 -25 33 -7 4 -13 19 -13 32 0 14 -5 25 -11 25 -5 0 -17 15 -25 33
-22 47 -39 74 -57 95 -10 10 -17 26 -17 35 0 9 -4 17 -10 17 -5 0 -16 15 -24
34 -8 18 -19 37 -25 40 -6 4 -11 15 -11 26 0 10 -7 20 -15 24 -8 3 -15 14 -15
24 0 11 -7 25 -15 32 -8 7 -15 16 -15 21 0 15 19 10 45 -13z m-346 -199 c28
-44 51 -89 51 -99 0 -15 -74 -156 -110 -210 -6 -8 -17 -28 -26 -45 -8 -16 -23
-43 -33 -60 -11 -16 -34 -58 -52 -92 -18 -35 -37 -63 -41 -63 -4 0 -8 -5 -8
-11 0 -8 -160 -294 -190 -339 -6 -8 -17 -28 -26 -45 -8 -16 -21 -39 -27 -50
-7 -11 -23 -38 -35 -60 -12 -22 -31 -53 -42 -70 -11 -16 -25 -41 -32 -55 -6
-14 -18 -33 -26 -42 -21 -25 -6 -38 46 -38 61 0 83 16 118 87 16 32 40 76 53
98 25 40 79 137 103 185 7 14 24 43 37 65 29 46 46 77 90 160 18 33 41 74 51
90 11 17 26 44 35 60 18 36 79 144 106 188 21 36 35 64 43 90 10 30 58 18 76
-19 8 -16 49 -87 90 -157 41 -70 80 -136 85 -145 6 -9 28 -48 50 -86 22 -38
50 -85 62 -105 34 -57 48 -82 82 -146 18 -33 43 -78 57 -100 13 -22 27 -47 31
-55 4 -8 21 -35 37 -60 17 -25 42 -65 55 -90 13 -25 37 -64 53 -88 15 -24 28
-46 28 -51 0 -4 11 -22 25 -41 31 -42 31 -58 2 -69 -12 -5 -236 -10 -496 -12
-441 -4 -475 -3 -485 13 -8 14 -7 26 6 50 9 18 29 59 43 91 l26 57 77 1 c42 0
160 0 262 0 102 0 193 2 203 5 23 7 22 35 -3 67 -11 14 -20 28 -20 31 0 3 -15
28 -33 54 -18 26 -36 55 -40 64 -3 9 -18 36 -34 60 -28 45 -39 63 -87 150 -15
29 -41 72 -56 95 -16 22 -31 51 -35 63 -11 34 -34 19 -69 -45 -50 -92 -87
-157 -106 -190 -10 -16 -29 -50 -42 -75 -14 -25 -35 -61 -46 -80 -12 -19 -28
-48 -36 -65 -8 -16 -33 -61 -55 -100 -22 -38 -52 -92 -67 -120 -42 -79 -74
-126 -87 -130 -7 -2 -144 -6 -305 -8 -257 -5 -294 -3 -299 10 -6 14 15 62 56
128 10 17 28 48 41 70 72 129 85 150 92 153 4 2 8 8 8 13 0 8 122 227 150 269
6 8 16 26 23 40 7 14 24 43 38 65 24 38 35 57 73 130 9 17 25 44 36 60 10 17
26 44 34 60 8 17 33 59 55 95 21 36 51 88 66 115 15 28 33 57 40 65 6 8 15 22
18 30 4 8 18 33 32 55 13 22 29 51 35 64 6 13 24 44 40 68 17 24 30 50 30 57
0 18 20 35 35 29 7 -2 36 -40 64 -84z"/>
</g>
</svg>
